Roboto-ThinItalic.ufo
<glyph name="uni02E7" format="2">
  <advance width="668"/>
  <unicode hex="02E7"/>
  <outline>
    <contour>
      <point x="458" y="1456" type="line"/>
      <point x="404" y="1456" type="line"/>
      <point x="404" y="0" type="line"/>
      <point x="458" y="0" type="line"/>
    </contour>
    <contour>
      <point x="448" y="755" type="line"/>
      <point x="40" y="755" type="line"/>
      <point x="40" y="701" type="line"/>
      <point x="448" y="701" type="line"/>
    </contour>
  </outline>
</glyph>
<glyph name="anglesupnosp" format="2">
  <unicode hex="031A"/>
  <anchor x="-433.4954918886508" y="1263" name="_top"/>
  <anchor x="-366.628833307818" y="1650" name="top"/>
  <anchor x="-366.628833307818" y="1650" name="parent_top"/>
  <outline>
    <contour>
      <point x="-660.4262577343031" y="1555.2525936247418" type="line"/>
      <point x="-126.47508457654374" y="1555.25010784001" type="line"/>
      <point x="-119.093365828365" y="1608.7474063752543" type="line"/>
      <point x="-653.0445389861247" y="1608.7498921599858" type="line"/>
    </contour>
    <contour>
      <point x="-193.77057372026562" y="1283.2850583189968" type="line"/>
      <point x="-139.94630028828325" y="1283.2859732353281" type="line"/>
      <point x="-84.8235529785267" y="1608.7149416810012" type="line"/>
      <point x="-138.64782641050908" y="1608.7140267646698" type="line"/>
    </contour>
  </outline>
</glyph>
<glyph name="ringsubnosp" format="2">
  <unicode hex="0325"/>
  <anchor x="-777.2921406596583" y="-418" name="bottom"/>
  <anchor x="-705.0692381098182" y="0" name="_bottom"/>
  <outline>
    <contour>
      <point x="-913.3171318482315" y="-247.50497260986958" type="curve" smooth="yes"/>
      <point x="-927.5004940516956" y="-338.91959793369097"/>
      <point x="-865.3656255191845" y="-418.0576286773917"/>
      <point x="-771.1988017176477" y="-417.6292791277142" type="curve" smooth="yes"/>
      <point x="-676.5709470295468" y="-417.1988324235965"/>
      <point x="-593.6483641789807" y="-340.89756257796626"/>
      <point x="-579.2732020147157" y="-248.500058811067" type="curve" smooth="yes"/>
      <point x="-565.1867599079595" y="-157.9583262901831"/>
      <point x="-625.9326828347314" y="-74.01281099047128"/>
      <point x="-720.6983921711424" y="-74.37410257785291" type="curve" smooth="yes"/>
      <point x="-816.385355613093" y="-74.73890642046376"/>
      <point x="-898.9595425209625" y="-154.9674183912348"/>
    </contour>
    <contour>
      <point x="-859.6707359430109" y="-248.3337292834749" type="curve" smooth="yes"/>
      <point x="-846.7661909277722" y="-183.35117529465947"/>
      <point x="-789.2650199847044" y="-128.20265786218988"/>
      <point x="-721.181113549808" y="-128.6297914285094" type="curve" smooth="yes"/>
      <point x="-654.7167295614445" y="-129.04676470241134"/>
      <point x="-620.4887727702001" y="-185.81000671284846"/>
      <point x="-632.9895632653262" y="-247.66197764206208" type="curve" smooth="yes"/>
      <point x="-646.0217335317343" y="-312.14313319592156"/>
      <point x="-703.9090314093021" y="-363.7928521070935"/>
      <point x="-770.7329675558967" y="-363.38216570419286" type="curve" smooth="yes"/>
      <point x="-835.6740979582796" y="-362.98305064478154"/>
      <point x="-871.9428459556038" y="-310.1315726408575"/>
    </contour>
  </outline>
</glyph>
<glyph name="archdblsubnosp" format="2">
  <unicode hex="032B"/>
  <anchor x="-648.8092381098182" y="0" name="_bottom"/>
  <anchor x="-693.5597925605565" y="-259" name="bottom"/>
  <outline>
    <contour>
      <point x="-909.7585160198972" y="-125.78462151545659" type="line"/>
      <point x="-912.7815690014894" y="-196.7755999426126"/>
      <point x="-874.6017491686387" y="-259.16611378086105"/>
      <point x="-796.2863526263895" y="-258.59739285413025" type="curve" smooth="yes"/>
      <point x="-717.7695367973388" y="-258.02720923464034"/>
      <point x="-661.4080863023279" y="-198.196119168022"/>
      <point x="-641.9736377744853" y="-127.18164858915685" type="curve"/>
      <point x="-699.8365225704263" y="-126.59513297112152" type="line"/>
      <point x="-716.2811099396863" y="-167.89007055761527"/>
      <point x="-746.202474789978" y="-202.22296051437806"/>
      <point x="-795.1729592434018" y="-201.3574049030926" type="curve" smooth="yes"/>
      <point x="-841.9569639572683" y="-200.53049542383255"/>
      <point x="-855.6222223482293" y="-166.4198680116432"/>
      <point x="-855.4031006203295" y="-126.25913587288446" type="curve"/>
    </contour>
    <contour>
      <point x="-699.2660068334592" y="-125.78321841283017" type="line"/>
      <point x="-702.2901780377418" y="-196.77426479351948"/>
      <point x="-664.1115144077146" y="-259.16588949397755"/>
      <point x="-585.7955046682843" y="-258.59689183018287" type="curve" smooth="yes"/>
      <point x="-507.27916884037495" y="-258.0264387158779"/>
      <point x="-450.91846704564153" y="-198.1954088079467"/>
      <point x="-431.48295898741316" y="-127.18187512253085" type="curve"/>
      <point x="-489.34575041798604" y="-126.59402141488785" type="line"/>
      <point x="-505.7822736966881" y="-167.87188792581534"/>
      <point x="-535.7144851109354" y="-202.24619091922236"/>
      <point x="-584.6795791411841" y="-201.35452368595847" type="curve" smooth="yes"/>
      <point x="-631.3924654258708" y="-200.50386974775697"/>
      <point x="-644.3496306340708" y="-166.1844823491781"/>
      <point x="-643.927694639356" y="-126.2660756762796" type="curve"/>
    </contour>
  </outline>
</glyph>
<glyph name="barmidlongnosp" format="2">
  <unicode hex="0336"/>
  <outline>
    <contour>
      <point x="73.026855902187" y="567.7473333944882" type="line"/>
      <point x="-1176.7844504205818" y="567.7497830547997" type="line"/>
      <point x="-1184.156830675918" y="514.2526666055109" type="line"/>
      <point x="65.6544756468504" y="514.2502169451999" type="line"/>
    </contour>
  </outline>
</glyph>
<glyph name="uni0483" format="2">
  <unicode hex="0483"/>
  <anchor x="-404.3985825253453" y="1190" name="_top"/>
  <outline>
    <contour>
      <point x="-125.3098831024514" y="1362.095301472134" type="line"/>
      <point x="-97.87925033039221" y="1521.694293894226" type="line"/>
      <point x="-152.65387437926452" y="1521.6975093792698" type="line"/>
      <point x="-171.72025754104178" y="1414.1179270362197" type="line"/>
      <point x="-637.0121799142759" y="1413.8988015517523" type="line"/>
      <point x="-666.7891558369384" y="1241.3374348310288" type="line"/>
      <point x="-609.1209526070369" y="1241.3332359546828" type="line"/>
      <point x="-587.6623891582412" y="1361.8736551989944" type="line"/>
    </contour>
  </outline>
</glyph>
<glyph name="uni0485" format="2">
  <unicode hex="0485"/>
  <anchor x="-422.040376173709" y="1290" name="_top"/>
  <outline>
    <contour>
      <point x="-364.81938794493846" y="1349.0006868471414" type="line"/>
      <point x="-326.9137963612174" y="1375.4688853818718" type="line"/>
      <point x="-368.0166479034921" y="1498.1214850468507" type="line"/>
      <point x="-342.3533959837118" y="1641.8686805376742" type="line"/>
      <point x="-438.26459427693817" y="1641.879567300647" type="line"/>
      <point x="-463.59334397409077" y="1504.3752814206528" type="line"/>
    </contour>
  </outline>
</glyph>
<glyph name="uni1ABD" format="2">
  <unicode hex="1ABD"/>
  <anchor x="-704.0994984350547" y="-320" name="_markparent_bottom"/>
  <outline>
    <contour>
      <point x="-1055.1746651818971" y="-537.3533565744498" type="curve"/>
      <point x="-1046.3239056874625" y="-505.42365485070934" type="line"/>
      <point x="-1121.6268830838371" y="-472.6510405134148"/>
      <point x="-1166.6123626094293" y="-407.779005661362"/>
      <point x="-1150.5738794328506" y="-323.19382876110103" type="curve" smooth="yes"/>
      <point x="-1133.9410825207165" y="-235.4743073032677"/>
      <point x="-1064.459535718879" y="-175.2307766231034"/>
      <point x="-984.4462826387896" y="-145.01005991537167" type="curve"/>
      <point x="-983.5817448126144" y="-112.52935935829049" type="line"/>
      <point x="-1079.6748930094798" y="-146.26760832998528"/>
      <point x="-1173.3728738396226" y="-215.19057274364474"/>
      <point x="-1190.9722964400817" y="-322.4645699610182" type="curve" smooth="yes"/>
      <point x="-1207.5989561426254" y="-423.8092724070161"/>
      <point x="-1145.1730079627084" y="-501.3594084358998"/>
    </contour>
    <contour>
      <point x="-427.55605717555704" y="-537.5187231848971" type="line"/>
      <point x="-328.4641615227457" y="-503.7348695192798"/>
      <point x="-236.3567407965653" y="-433.59707000091487"/>
      <point x="-219.61003244493315" y="-323.4899046108108" type="curve" smooth="yes"/>
      <point x="-204.55504798682344" y="-224.50557713173498"/>
      <point x="-269.1615263757467" y="-148.3054611510907"/>
      <point x="-356.0103146962426" y="-112.65558522576956" type="curve"/>
      <point x="-364.68581493711275" y="-143.5807462392375" type="line"/>
      <point x="-289.0901165688415" y="-175.4362985132048"/>
      <point x="-243.55071256750406" y="-237.93674381377056"/>
      <point x="-259.9519002437909" y="-322.8186055341614" type="curve" smooth="yes"/>
      <point x="-276.8950553252406" y="-410.5053374413931"/>
      <point x="-346.5852707711635" y="-472.7764721983364"/>
      <point x="-426.5328804780139" y="-504.06965380336743" type="curve"/>
    </contour>
  </outline>
</glyph>
<glyph name="uni1DC8" format="2">
  <unicode hex="1DC8"/>
  <anchor x="-440.8342237956726" y="1170" name="_top"/>
  <outline>
    <contour>
      <point x="-569.4183309894293" y="1249.6919640574363" type="line"/>
      <point x="-487.2283349918157" y="1250.4158322279563" type="line"/>
      <point x="-273.86448133442406" y="1489.6345723039183" type="line"/>
      <point x="-145.42403043655537" y="1249.1737976444458" type="line"/>
      <point x="-89.3937993827245" y="1248.8008486921583" type="line"/>
      <point x="-229.1131325682612" y="1516.0099889190299" type="line"/>
      <point x="-322.5934653743632" y="1515.526670251527" type="line"/>
      <point x="-531.0799053197617" y="1275.3915544496242" type="line"/>
      <point x="-654.5233683528645" y="1516.8208284207144" type="line"/>
      <point x="-717.37574118753" y="1517.2134627437079" type="line"/>
    </contour>
  </outline>
</glyph>
<glyph name="uni1DD0" format="2">
  <unicode hex="1DD0"/>
  <anchor x="-496.5192381098182" y="0" name="_bottom"/>
  <outline>
    <contour>
      <point x="-687.9886701833481" y="-66.72405041622605" type="curve"/>
      <point x="-742.0434403606632" y="-161.09408864927553"/>
      <point x="-800.0411863440934" y="-255.4875778396745"/>
      <point x="-846.3818484178969" y="-353.9270575101446" type="curve"/>
      <point x="-838.5270005412463" y="-369.1827757541218"/>
      <point x="-830.684725459882" y="-384.44476605621975"/>
      <point x="-822.8547887717533" y="-399.7132848742056" type="curve"/>
      <point x="-776.3214577805604" y="-379.48771127118414"/>
      <point x="-729.2886608339195" y="-360.39861977756897"/>
      <point x="-677.562516550846" y="-361.83357487223486" type="curve" smooth="yes"/>
      <point x="-591.3870008935329" y="-364.22420338208855"/>
      <point x="-524.4966894570988" y="-435.5532547390313"/>
      <point x="-435.3961795988959" y="-435.5612908948775" type="curve" smooth="yes"/>
      <point x="-334.2045540884539" y="-435.57041757298776"/>
      <point x="-286.4480946294964" y="-358.2956151891698"/>
      <point x="-255.21796795683184" y="-272.4473238428727" type="curve"/>
      <point x="-269.50843523106494" y="-268.2512185897482"/>
      <point x="-283.79944131428" y="-264.05696867578325"/>
      <point x="-298.0912370091176" y="-259.86539041767367" type="curve"/>
      <point x="-326.5528631223939" y="-324.008861372301"/>
      <point x="-357.65839345239993" y="-380.35135000348066"/>
      <point x="-435.86029315394467" y="-381.46064114216745" type="curve" smooth="yes"/>
      <point x="-522.0904675383265" y="-382.68381306889904"/>
      <point x="-587.1137102477742" y="-307.93392988688265"/>
      <point x="-672.8722500558762" y="-307.56513570353667" type="curve" smooth="yes"/>
      <point x="-713.3253921732744" y="-307.39117187970817"/>
      <point x="-748.8114904171915" y="-321.36735898786566"/>
      <point x="-784.4252687684016" y="-338.9947556385419" type="curve"/>
      <point x="-728.3098739742798" y="-253.9554091863816"/>
      <point x="-671.536516540274" y="-159.76154206011077"/>
      <point x="-630.4499624134268" y="-66.50475012357764" type="curve"/>
      <point x="-649.629704406171" y="-66.55921379813122"/>
      <point x="-668.8090852981672" y="-66.62987966287565"/>
    </contour>
  </outline>
</glyph>
<glyph name="uni1DE0" format="2">
  <unicode hex="1DE0"/>
  <anchor x="-446.65422379567264" y="1170" name="_top"/>
  <outline>
    <contour>
      <point x="-315.7089091255932" y="1626.0261747376662" type="line"/>
      <point x="-293.9721463391213" y="1752.6739570818927" type="line"/>
      <point x="-334.17560452657165" y="1752.6729605823052" type="line"/>
      <point x="-429.15412992467895" y="1201.323573857253" type="line"/>
      <point x="-388.95268714221794" y="1201.3252218456623" type="line"/>
    </contour>
    <contour>
      <point x="-337.35852024768127" y="1522.6570149304166" type="line"/>
      <point x="-311.2956627088546" y="1637.7070698405923"/>
      <point x="-248.0054294109318" y="1722.705146961924"/>
      <point x="-120.8117682291803" y="1723.4358450491022" type="curve" smooth="yes"/>
      <point x="-0.2925086722947299" y="1724.1282002467447"/>
      <point x="-10.081463624880826" y="1606.7870949102296"/>
      <point x="-25.10820922582991" y="1517.0698571006278" type="curve" smooth="yes"/>
      <point x="-80.07912052868176" y="1201.3567727581203" type="line"/>
      <point x="-39.84314838909893" y="1201.3422011084788" type="line"/>
      <point x="14.351327094778753" y="1515.9552121514043" type="line" smooth="yes"/>
      <point x="32.510597610771356" y="1633.9552962670998"/>
      <point x="23.92511636022539" y="1765.300558149611"/>
      <point x="-124.53505310144277" y="1763.7546256547816" type="curve" smooth="yes"/>
      <point x="-268.84332567681497" y="1762.2519273306727"/>
      <point x="-346.5824387537107" y="1658.3911611565895"/>
      <point x="-373.5708152964123" y="1526.9144603599686" type="curve"/>
    </contour>
  </outline>
</glyph>
<glyph name="uni2DE9" format="2">
  <unicode hex="2DE9"/>
  <anchor x="-446.65422379567264" y="1170" name="_top"/>
  <outline>
    <contour>
      <point x="-212.71085418397905" y="1507.7757084877912" type="line"/>
      <point x="-565.2084655423504" y="1507.77660901594" type="line"/>
      <point x="-571.2501171345393" y="1468.2242915122067" type="line"/>
      <point x="-218.75250577616802" y="1468.223390984057" type="line"/>
    </contour>
    <contour>
      <point x="-497.8132896629855" y="1753.6787124537095" type="line"/>
      <point x="-538.0138977203086" y="1753.6768374085477" type="line"/>
      <point x="-632.9927186508355" y="1202.3212875462875" type="line"/>
      <point x="-592.7921105935128" y="1202.3231625914502" type="line"/>
    </contour>
    <contour>
      <point x="-152.49328966298606" y="1753.67871245371" type="line"/>
      <point x="-192.693897720309" y="1753.6768374085482" type="line"/>
      <point x="-287.6727186508359" y="1202.3212875462875" type="line"/>
      <point x="-247.47211059351298" y="1202.3231625914502" type="line"/>
    </contour>
  </outline>
</glyph>
<glyph name="uni2DF0" format="2">
  <unicode hex="2DF0"/>
  <anchor x="-467.02422379567264" y="1170" name="_top"/>
  <outline>
    <contour>
      <point x="-666.2140935895529" y="1202.1705256139958" type="line"/>
      <point x="-281.74424344836825" y="1202.0613790544892" type="line"/>
      <point x="-186.4311201626473" y="1753.6729710426525" type="line"/>
      <point x="-226.62496475661857" y="1753.670065039957" type="line"/>
      <point x="-315.5354359345005" y="1242.0660733509724" type="line"/>
      <point x="-621.1003532140469" y="1242.059670450345" type="line"/>
      <point x="-532.7295617531214" y="1753.673793311044" type="line"/>
      <point x="-572.9403654126196" y="1753.6735063672058" type="line"/>
    </contour>
    <contour>
      <point x="-207.48915613962757" y="1241.722295628781" type="line"/>
      <point x="-326.29754028989925" y="1241.7106660751328" type="line"/>
      <point x="-332.5723928800659" y="1202.1825275183617" type="line"/>
      <point x="-254.8723686983701" y="1201.9966095069888" type="line"/>
      <point x="-282.3362533102782" y="1039.3658545685532" type="line"/>
      <point x="-242.1055574078734" y="1039.368568183513" type="line"/>
    </contour>
  </outline>
</glyph>
<glyph name="uni2DF4" format="2">
  <unicode hex="2DF4"/>
  <anchor x="-448.5942237956727" y="1170" name="_top"/>
  <outline>
    <contour>
      <point x="-176.47413020485916" y="1498.7795395462017" type="line"/>
      <point x="-614.3326584034336" y="1498.7804528032846" type="line"/>
      <point x="-620.3053352526501" y="1459.2204426687017" type="line"/>
      <point x="-182.44680705407552" y="1459.2195294116195" type="line"/>
    </contour>
    <contour>
      <point x="-438.32976270125806" y="1192.258247917638" type="curve" smooth="yes"/>
      <point x="-280.44468972873926" y="1192.7216385480076"/>
      <point x="-186.8443572719035" y="1320.879664999543"/>
      <point x="-160.9666958276695" y="1464.817506718587" type="curve" smooth="yes"/>
      <point x="-157.6273063479694" y="1485.8537314797452" type="line" smooth="yes"/>
      <point x="-137.81505245839656" y="1625.4041571039788"/>
      <point x="-190.59056109390258" y="1759.2562968955185"/>
      <point x="-349.9625206548545" y="1758.7412362968923" type="curve" smooth="yes"/>
      <point x="-507.5263805400191" y="1758.2320191408892"/>
      <point x="-602.3922911333476" y="1630.0448824641674"/>
      <point x="-628.2986832372917" y="1486.1847634396447" type="curve" smooth="yes"/>
      <point x="-631.6351874409896" y="1465.1483547516443" type="line" smooth="yes"/>
      <point x="-651.3700619392796" y="1325.643919216263"/>
      <point x="-597.2486190902785" y="1191.7918231464216"/>
    </contour>
    <contour>
      <point x="-441.2282845757501" y="1232.4360499548443" type="curve" smooth="yes"/>
      <point x="-577.8732728572344" y="1232.749956619639"/>
      <point x="-610.8938231188669" y="1349.361343174734"/>
      <point x="-591.364088381877" y="1464.9812995999082" type="curve" smooth="yes"/>
      <point x="-587.4232448090015" y="1486.0097988186296" type="line" smooth="yes"/>
      <point x="-562.0289703243286" y="1608.4076062754425"/>
      <point x="-483.06481612108826" y="1718.8785107828046"/>
      <point x="-347.0644404946253" y="1718.562193401486" type="curve" smooth="yes"/>
      <point x="-210.34339405777928" y="1718.2441998431532"/>
      <point x="-178.4012870583223" y="1601.338877383851"/>
      <point x="-197.90263472417257" y="1486.0187419816464" type="curve" smooth="yes"/>
      <point x="-201.8407833831441" y="1464.9907883163294" type="line" smooth="yes"/>
      <point x="-227.14511937649968" y="1342.7901703665245"/>
      <point x="-305.23489275327563" y="1232.1236401650817"/>
    </contour>
  </outline>
</glyph>
<glyph name="uni2DFA" format="2">
  <unicode hex="2DFA"/>
  <anchor x="-418.52422379567264" y="1170" name="_top"/>
  <outline>
    <contour>
      <point x="-489.31531632638143" y="1542.779431347781" type="line"/>
      <point x="-495.3671038043687" y="1503.2682418797162" type="line"/>
      <point x="-302.6208533428237" y="1502.6584428497479" type="line" smooth="yes"/>
      <point x="-219.9473671903981" y="1499.5309170764406"/>
      <point x="-159.37960867933026" y="1463.4497004948182"/>
      <point x="-177.56969038934858" y="1373.1328818030702" type="curve" smooth="yes"/>
      <point x="-196.18636773383733" y="1280.6979439523554"/>
      <point x="-268.76976396198506" y="1244.166556279379"/>
      <point x="-357.3796635962538" y="1241.210456391137" type="curve" smooth="yes"/>
      <point x="-509.692207527008" y="1241.0558721104353" type="line"/>
      <point x="-378.9096292698376" y="1997.6787440039109" type="line"/>
      <point x="-419.1049880653951" y="1997.6757595869892" type="line"/>
      <point x="-557.2251870328923" y="1201.9859451503858" type="line"/>
      <point x="-354.27883261406583" y="1202.1822131163556" type="line" smooth="yes"/>
      <point x="-245.86226414267884" y="1205.5969448056292"/>
      <point x="-154.74431811767" y="1259.0794254597872"/>
      <point x="-137.28393163689015" y="1372.6234462383281" type="curve" smooth="yes"/>
      <point x="-119.84295494574728" y="1486.0412461247788"/>
      <point x="-200.08295909696105" y="1539.9339082064994"/>
      <point x="-304.5132162348472" y="1542.9116835659895" type="curve" smooth="yes"/>
    </contour>
    <contour>
      <point x="-264.4988504972217" y="1790.768666852665" type="line"/>
      <point x="-555.8865619553759" y="1790.7694014505937" type="line"/>
      <point x="-562.0512965987148" y="1751.2308349175014" type="line"/>
      <point x="-270.6635851405609" y="1751.2301003195728" type="line"/>
    </contour>
  </outline>
</glyph>
<glyph name="uniA64D" format="2">
  <advance width="1746"/>
  <unicode hex="A64D"/>
  <outline>
    <contour>
      <point x="434.45281324643736" y="33.27301938442736" type="curve" smooth="yes"/>
      <point x="170.92603173636957" y="33.96652576080473"/>
      <point x="99.817450478152" y="302.96488009642803"/>
      <point x="136.5781610318504" y="520.025575858756" type="curve" smooth="yes"/>
      <point x="144.14085199978246" y="561.9999802603381" type="line" smooth="yes"/>
      <point x="188.497294056121" y="796.5429663015428"/>
      <point x="335.44986334111354" y="1036.6637682252208"/>
      <point x="596.564288542699" y="1048.2276942852836" type="curve"/>
      <point x="603.9783442027646" y="1101.6853348059085" type="line"/>
      <point x="310.2386504211379" y="1091.948383274538"/>
      <point x="136.9737010248943" y="828.9441233648636"/>
      <point x="89.62618840887914" y="562.0409827549576" type="curve" smooth="yes"/>
      <point x="82.56367186502276" y="520.0205965694338" type="line" smooth="yes"/>
      <point x="42.737399487681415" y="268.2214190200498"/>
      <point x="138.10136168213967" y="-20.296776828985557"/>
      <point x="435.08376319978606" y="-20.880930277013107" type="curve" smooth="yes"/>
      <point x="640.0206734087778" y="-21.284033633019813"/>
      <point x="811.0776430172676" y="93.85429546358012"/>
      <point x="849.1439265062432" y="300.8311879056531" type="curve" smooth="yes"/>
      <point x="902.3694566009714" y="616.7110229249924" type="line"/>
      <point x="848.6039281759618" y="616.7129692771983" type="line"/>
      <point x="793.9220104702076" y="301.04509861959207" type="line" smooth="yes"/>
      <point x="758.9120920758025" y="121.7058873587508"/>
      <point x="610.9101098236114" y="32.8086481367183"/>
    </contour>
    <contour>
      <point x="1105.7411927037476" y="33.24004653483441" type="curve" smooth="yes"/>
      <point x="933.8072084700033" y="33.01177141095171"/>
      <point x="818.384486384045" y="122.63555323241957"/>
      <point x="847.951767676557" y="300.9887910161832" type="curve" smooth="yes"/>
      <point x="902.4771594110713" y="616.696113634199" type="line"/>
      <point x="848.6072652934608" y="616.7084628578484" type="line"/>
      <point x="794.7061323535968" y="301.0156833100354" type="line" smooth="yes"/>
      <point x="763.9360823260986" y="93.77309587082829"/>
      <point x="908.8490254331676" y="-21.42947125552746"/>
      <point x="1106.3316669668725" y="-20.82932243193526" type="curve" smooth="yes"/>
      <point x="1402.856823115395" y="-19.92818386985229"/>
      <point x="1589.2357700365146" y="253.56824377503528"/>
      <point x="1636.4910620354074" y="519.9594086266831" type="curve" smooth="yes"/>
      <point x="1643.5549159681968" y="561.9783322755178" type="line" smooth="yes"/>
      <point x="1682.1513346829893" y="805.8773153096815"/>
      <point x="1603.5899355796091" y="1092.453224861537"/>
      <point x="1314.460404899746" y="1101.5934174571767" type="curve"/>
      <point x="1306.9711284919085" y="1048.0862472584613" type="line"/>
      <point x="1572.1271641669136" y="1036.1180401148115"/>
      <point x="1627.5125208228194" y="785.1507090032421"/>
      <point x="1589.4945043523153" y="561.9810572869415" type="curve" smooth="yes"/>
      <point x="1581.9372425400059" y="520.0035004957782" type="line" smooth="yes"/>
      <point x="1537.3771974861988" y="285.71242932673823"/>
      <point x="1368.7649874224617" y="33.58926073812937"/>
    </contour>
  </outline>
</glyph>
<glyph name="uniA671" format="2">
  <unicode hex="A671"/>
  <outline>
    <contour>
      <point x="-1196.3174356923103" y="139.70538768026051" type="line"/>
      <point x="-1263.8828871668811" y="-250.9225537863929" type="line"/>
      <point x="-121.2236293800949" y="-250.93077588956268" type="line"/>
      <point x="-54.165676914676915" y="139.7079209178628" type="line"/>
      <point x="-107.96699612269691" y="139.70651315749333" type="line"/>
      <point x="-166.2175255305798" y="-196.9143695367334" type="line"/>
      <point x="-1200.235046408436" y="-196.9248586049949" type="line"/>
      <point x="-1142.498212304087" y="139.70919847273302" type="line"/>
    </contour>
    <contour>
      <point x="-997.5149459809763" y="969.2934092410912" type="line"/>
      <point x="-939.2644165730969" y="1305.914291935317" type="line"/>
      <point x="94.75310430477337" y="1305.9247810035797" type="line"/>
      <point x="37.016270200413985" y="969.2907239258516" type="line"/>
      <point x="90.83549358863793" y="969.2945347183233" type="line"/>
      <point x="158.40094506320156" y="1359.9224761849764" type="line"/>
      <point x="-984.2583127235279" y="1359.9306982881526" type="line"/>
      <point x="-1051.3162651889968" y="969.292001480722" type="line"/>
    </contour>
  </outline>
</glyph>
<glyph name="uniA672" format="2">
  <unicode hex="A672"/>
  <guideline x="0.0" y="1384.0" angle="0.0" identifier="6sLmMEs1Lj"/>
  <outline>
    <contour>
      <point x="-1078.4497163719343" y="880.7518188066001" type="line"/>
      <point x="-1557.1108033397363" y="880.7542104522272" type="line"/>
      <point x="-1564.3213485990404" y="828.2481811933981" type="line"/>
      <point x="-1085.6602616312382" y="828.2457895477705" type="line"/>
    </contour>
    <contour>
      <point x="-1182.4008262310297" y="280.75181880660097" type="line"/>
      <point x="-1661.0619131988335" y="280.7542104522282" type="line"/>
      <point x="-1668.2724584581379" y="228.24818119339912" type="line"/>
      <point x="-1189.611371490334" y="228.24578954777186" type="line"/>
    </contour>
    <contour>
      <point x="-1130.4252713014816" y="580.7518188066003" type="line"/>
      <point x="-1609.0863582692848" y="580.7542104522273" type="line"/>
      <point x="-1616.296903528589" y="528.2481811933984" type="line"/>
      <point x="-1137.635816560786" y="528.2457895477713" type="line"/>
    </contour>
    <contour>
      <point x="562.7902836280645" y="880.7518188066" type="line"/>
      <point x="84.12919666026171" y="880.7542104522272" type="line"/>
      <point x="76.91865140095781" y="828.2481811933978" type="line"/>
      <point x="555.5797383687603" y="828.2457895477708" type="line"/>
    </contour>
    <contour>
      <point x="458.8391737689682" y="280.7518188066007" type="line"/>
      <point x="-19.82191319883448" y="280.754210452228" type="line"/>
      <point x="-27.032458458138407" y="228.24818119339886" type="line"/>
      <point x="451.6286285096645" y="228.24578954777158" type="line"/>
    </contour>
    <contour>
      <point x="510.81472869851586" y="580.7518188066003" type="line"/>
      <point x="32.153641730713545" y="580.7542104522274" type="line"/>
      <point x="24.943096471409618" y="528.2481811933984" type="line"/>
      <point x="503.60418343921185" y="528.2457895477714" type="line"/>
    </contour>
    <contour>
      <point x="-414.77993218262185" y="-476.70983292915827" type="line"/>
      <point x="-348.26562493527337" y="-85.28930026266843" type="line"/>
      <point x="-401.1160836050341" y="-85.2901670708413" type="line"/>
      <point x="-467.6303908523822" y="-476.71069973733114" type="line"/>
    </contour>
    <contour>
      <point x="-996.7799321826213" y="-476.70983292915815" type="line"/>
      <point x="-930.2656249352731" y="-85.2893002626683" type="line"/>
      <point x="-983.116083605034" y="-85.29016707084116" type="line"/>
      <point x="-1049.6303908523819" y="-476.710699737331" type="line"/>
    </contour>
    <contour>
      <point x="-705.779932182622" y="-476.70983292915815" type="line"/>
      <point x="-639.2656249352732" y="-85.2893002626683" type="line"/>
      <point x="-692.1160836050336" y="-85.29016707084116" type="line"/>
      <point x="-758.6303908523823" y="-476.710699737331" type="line"/>
    </contour>
    <contour>
      <point x="-417.31560232362995" y="1188.2901670708395" type="line"/>
      <point x="-350.80129507628135" y="1579.71069973733" type="line"/>
      <point x="-403.6517537460418" y="1579.7098329291578" type="line"/>
      <point x="-470.16606099339043" y="1188.2893002626674" type="line"/>
    </contour>
    <contour>
      <point x="-214.4717463850858" y="1410.7508139951265" type="line"/>
      <point x="-596.1322207116933" y="1410.7534563480506" type="line"/>
      <point x="-603.4123578348206" y="1358.2491860048701" type="line"/>
      <point x="-221.7518835082131" y="1358.246543651946" type="line"/>
    </contour>
  </outline>
</glyph>
<glyph name="uniFE28" format="2">
  <unicode hex="FE28"/>
  <outline>
    <contour>
      <point x="760.7913455238621" y="-104.79598668780093" type="line"/>
      <point x="478.1134130330636" y="-283.4503998887494"/>
      <point x="168.02708230825561" y="-333.399201708459"/>
      <point x="-163.56319994457954" y="-336.32798306560596" type="curve"/>
      <point x="-171.3019485537564" y="-391.759452417392" type="line"/>
      <point x="168.16591699057642" y="-390.1770159529592"/>
      <point x="567.2240367561451" y="-351.0813447926886"/>
      <point x="827.2251003390053" y="-105.48608812585482" type="curve"/>
    </contour>
  </outline>
</glyph>
<glyph name="K.alt" format="2">
  <advance width="1261"/>
  <outline>
    <contour>
      <point x="394.90824876324086" y="1455.7284240331783" type="line"/>
      <point x="341.0967188898969" y="1455.7251209506853" type="line"/>
      <point x="90.38791301409633" y="0.0" type="line"/>
      <point x="144.19944288744034" y="0.0" type="line"/>
    </contour>
    <contour>
      <point x="1294.6465643078895" y="1454.3161122073748" type="line"/>
      <point x="1221.7153580906324" y="1454.781880971259" type="line"/>
      <point x="501.8568687273229" y="764.3990674544989" type="line"/>
      <point x="259.40586201043925" y="763.2865813264108" type="line"/>
      <point x="244.57204571024374" y="711.5441017147448" type="line"/>
      <point x="527.6026005382896" y="711.4206309882732" type="line"/>
    </contour>
    <contour>
      <point x="1020.892506783166" y="0.0" type="line"/>
      <point x="1088.0744494035978" y="0.0" type="line"/>
      <point x="517.866123428609" y="760.8370327024321" type="line"/>
      <point x="478.9047155983653" y="715.7775005482807" type="line"/>
    </contour>
  </outline>
</glyph>
<glyph name="macrongravecomb" format="2">
  <outline>
    <contour>
      <point x="-443.7410734923526" y="1637.8108915563193" type="line"/>
      <point x="-505.3454508022596" y="1638.2414219065397" type="line"/>
      <point x="-367.12552305332434" y="1423.2214161567354" type="line"/>
      <point x="-315.2602250991758" y="1422.8212852369777" type="line"/>
    </contour>
    <contour>
      <point x="-143.1174397868962" y="1335.7515388557295" type="line"/>
      <point x="-694.528676463073" y="1335.7538244749478" type="line"/>
      <point x="-701.7244418977846" y="1283.24846114427" type="line"/>
      <point x="-150.3132052216076" y="1283.2461755250515" type="line"/>
    </contour>
  </outline>
</glyph>
<glyph name="tildedieresiscomb" format="2">
  <outline>
    <contour>
      <point x="-207.12412529925913" y="1370.2145279444655" type="line"/>
      <point x="-225.71492039825173" y="1313.838023482966"/>
      <point x="-268.34229634306865" y="1265.2772808916122"/>
      <point x="-332.7367953643167" y="1265.5369679228916" type="curve" smooth="yes"/>
      <point x="-408.2313997332224" y="1265.8414189238954"/>
      <point x="-441.56545684073734" y="1355.0745988125868"/>
      <point x="-521.3843910404336" y="1355.7085375703753" type="curve" smooth="yes"/>
      <point x="-607.784973820266" y="1356.3947491650154"/>
      <point x="-671.2600723120015" y="1299.7813357130533"/>
      <point x="-692.0189372355866" y="1219.2598424409143" type="curve"/>
      <point x="-644.4024828944371" y="1209.8394178626122" type="line"/>
      <point x="-624.1139548117546" y="1265.657456162871"/>
      <point x="-583.6980591686685" y="1305.459532858263"/>
      <point x="-520.4273789441214" y="1305.4089301875283" type="curve" smooth="yes"/>
      <point x="-444.8127844739345" y="1305.3484550920637"/>
      <point x="-412.0036411718166" y="1217.453468314711"/>
      <point x="-331.44216725976435" y="1217.327030552224" type="curve" smooth="yes"/>
      <point x="-243.11918846841866" y="1217.1884114422166"/>
      <point x="-180.58529055438572" y="1278.3017277288354"/>
      <point x="-159.6692310661016" y="1359.7675800220593" type="curve"/>
    </contour>
    <contour>
      <point x="-638.2857327933166" y="1511.5389556677194" type="curve" smooth="yes"/>
      <point x="-642.7787842470799" y="1482.5649449369957"/>
      <point x="-620.9926574160296" y="1455.5303866058046"/>
      <point x="-591.327780664928" y="1455.3411904425845" type="curve" smooth="yes"/>
      <point x="-563.0465459684785" y="1455.1608188489122"/>
      <point x="-533.3407163928019" y="1480.537809522727"/>
      <point x="-528.9602145660544" y="1508.4422336137088" type="curve" smooth="yes"/>
      <point x="-524.4019970367126" y="1537.4787321858696"/>
      <point x="-546.9441737768079" y="1565.5093588269697"/>
      <point x="-576.7032706167053" y="1565.6547795518818" type="curve" smooth="yes"/>
      <point x="-605.1946300473805" y="1565.7940053544803"/>
      <point x="-633.9877871048774" y="1539.25480218726"/>
    </contour>
    <contour>
      <point x="-245.43573382262787" y="1511.538955667719" type="curve" smooth="yes"/>
      <point x="-249.92878527638806" y="1482.5649449370162"/>
      <point x="-228.14265844550815" y="1455.5303866058048"/>
      <point x="-198.4777816942389" y="1455.3411904425832" type="curve" smooth="yes"/>
      <point x="-170.19654699788612" y="1455.160818848911"/>
      <point x="-140.49071742210984" y="1480.5378095227472"/>
      <point x="-136.11021559536562" y="1508.4422336137084" type="curve" smooth="yes"/>
      <point x="-131.55199806602354" y="1537.478732185871"/>
      <point x="-154.0941748061248" y="1565.5093588269694"/>
      <point x="-183.8532716460166" y="1565.6547795518811" type="curve" smooth="yes"/>
      <point x="-212.34463107660554" y="1565.7940053544787"/>
      <point x="-241.13778813419069" y="1539.2548021872462"/>
    </contour>
  </outline>
</glyph>
